<?xml version="1.0" encoding="utf-8"?>
<svg width="15px" height="19px" viewBox="0 0 15 19" version="1.1" xmlns:xlink="http://www.w3.org/1999/xlink" xmlns="http://www.w3.org/2000/svg">
  <g id="file-4">
    <path d="M8.80892 18.3067L13.1635 18.3067C13.7834 18.3067 14.2866 17.7958 14.2866 17.1663L14.2866 2.33684L14.2866 1.1404C14.2866 0.510915 13.7834 0 13.1635 0L7.14225 0L5.97346 0L5.97346 0.377258C5.97769 0.416062 5.97983 0.457021 5.97983 0.49798L5.97983 2.98357L5.97983 4.44776C5.97983 5.33378 5.2707 6.0538 4.39809 6.0538L2.93631 6.0538L0.488323 6.0538C0.456476 6.0538 0.422505 6.05165 0.390658 6.04949L0 6.04949L0 17.1663C0 17.7958 0.503185 18.3067 1.12314 18.3067L2.35456 18.3067L7.14225 18.3067L8.80892 18.3067Z" id="Shape" fill="#FFFFFF" fill-rule="evenodd" stroke="none" />
    <path d="M0.474608 4.56374L3.55104 4.56374C3.55316 4.56374 3.55741 4.56374 3.55953 4.56374C4.07333 4.55943 4.48947 4.1369 4.49372 3.61521C4.49372 3.61305 4.49372 3.60874 4.49372 3.60659L4.49372 0.480734C4.49372 0.191863 4.26017 0 4.01815 0C3.90138 0 3.78461 0.0431152 3.68694 0.14228L0.139151 3.74455C-0.158089 4.04636 0.0521024 4.56374 0.474608 4.56374Z" transform="translate(0.01373291 0.017242432)" id="Path" fill="#FFFFFF" stroke="none" />
  </g>
</svg>