<?xml version="1.0" encoding="utf-8"?>
<svg width="16px" height="21px" viewBox="0 0 16 21" version="1.1" xmlns:xlink="http://www.w3.org/1999/xlink" xmlns="http://www.w3.org/2000/svg">
  <g id="calendar-4">
    <path d="M0.842105 4.8125C0.377263 4.8125 0 4.4205 0 3.9375L0 0.875C0 0.392 0.377263 0 0.842105 0C1.30695 0 1.68421 0.392 1.68421 0.875L1.68421 3.9375C1.68421 4.4205 1.30695 4.8125 0.842105 4.8125Z" transform="translate(3.1578948 0)" id="Path" fill="#FFFFFF" stroke="none" />
    <path d="M0.842105 4.8125C0.377263 4.8125 0 4.4205 0 3.9375L0 0.875C0 0.392 0.377263 0 0.842105 0C1.30695 0 1.68421 0.392 1.68421 0.875L1.68421 3.9375C1.68421 4.4205 1.30695 4.8125 0.842105 4.8125Z" transform="translate(7.1578946 0)" id="Path" fill="#FFFFFF" stroke="none" />
    <path d="M0.842105 4.8125C0.377263 4.8125 0 4.4205 0 3.9375L0 0.875C0 0.392 0.377263 0 0.842105 0C1.30695 0 1.68421 0.392 1.68421 0.875L1.68421 3.9375C1.68421 4.4205 1.30695 4.8125 0.842105 4.8125Z" transform="translate(11.157895 0)" id="Path" fill="#FFFFFF" stroke="none" />
    <path d="M13.6842 0L2.31579 0C1.03832 0 0 1.07887 0 2.40625L0 16.625C0 17.9524 1.03832 19.0313 2.31579 19.0313L13.6842 19.0313C14.9617 19.0313 16 17.9524 16 16.625L16 2.40625C16 1.07887 14.9617 0 13.6842 0ZM4.21053 5.03125L8.42105 5.03125C8.88589 5.03125 9.26316 5.42325 9.26316 5.90625C9.26316 6.38925 8.88589 6.78125 8.42105 6.78125L4.21053 6.78125C3.74568 6.78125 3.36842 6.38925 3.36842 5.90625C3.36842 5.42325 3.74568 5.03125 4.21053 5.03125ZM12.6316 13.7813L4.21053 13.7813C3.74568 13.7813 3.36842 13.3892 3.36842 12.9063C3.36842 12.4233 3.74568 12.0313 4.21053 12.0313L12.6316 12.0313C13.0964 12.0313 13.4737 12.4233 13.4737 12.9063C13.4737 13.3892 13.0964 13.7813 12.6316 13.7813ZM12.6316 10.2813L4.21053 10.2813C3.74568 10.2813 3.36842 9.88925 3.36842 9.40625C3.36842 8.92325 3.74568 8.53125 4.21053 8.53125L12.6316 8.53125C13.0964 8.53125 13.4737 8.92325 13.4737 9.40625C13.4737 9.88925 13.0964 10.2813 12.6316 10.2813Z" transform="translate(0 1.96875)" id="Shape" fill="#FFFFFF" stroke="none" />
  </g>
</svg>