<?xml version="1.0" encoding="utf-8"?>
<svg width="21px" height="18px" viewBox="0 0 21 18" version="1.1" xmlns:xlink="http://www.w3.org/1999/xlink" xmlns="http://www.w3.org/2000/svg">
  <g id="photo-2">
    <path d="M1.25098 2.4292C1.94187 2.4292 2.50195 1.88541 2.50195 1.2146C2.50195 0.543796 1.94187 0 1.25098 0C0.560081 0 0 0.543796 0 1.2146C0 1.88541 0.560081 2.4292 1.25098 2.4292Z" transform="translate(12.345703 5.973451)" id="Oval" fill="#FFFFFF" stroke="none" />
    <path d="M7.08496 6.69421C8.81758 7.53997 10.46 8.34153 13.6172 8.4336L13.6172 0L0 0L0 4.82711C3.45557 4.92284 5.29918 5.82244 7.08496 6.69421ZM9.90527 1.19469C11.2735 1.19469 12.3867 2.27553 12.3867 3.60398C12.3867 4.93244 11.2735 6.01327 9.90527 6.01327C8.53703 6.01327 7.42383 4.93244 7.42383 3.60398C7.42383 2.27553 8.53703 1.19469 9.90527 1.19469Z" transform="translate(3.6914062 3.5840707)" id="Shape" fill="#FFFFFF" stroke="none" />
    <path d="M6.53223 1.73939C4.79961 0.893668 3.15718 0.0921106 0 0L0 4.8097L13.6172 4.8097L13.6172 3.60649C10.1616 3.51076 8.31801 2.61115 6.53223 1.73939Z" transform="translate(3.6914062 9.606226)" id="Path" fill="#FFFFFF" stroke="none" />
    <path d="M0 1.82509L0 16.1749Q0 16.2646 0.00878829 16.3538Q0.0175766 16.443 0.0350685 16.531Q0.0525605 16.6189 0.0785876 16.7047Q0.104615 16.7905 0.138926 16.8733Q0.173238 16.9562 0.215504 17.0353Q0.25777 17.1143 0.307583 17.1889Q0.357395 17.2634 0.414276 17.3327Q0.471156 17.402 0.534556 17.4654Q0.597955 17.5288 0.667264 17.5857Q0.736573 17.6426 0.811123 17.6924Q0.885673 17.7422 0.964747 17.7845Q1.04382 17.8268 1.12666 17.8611Q1.20949 17.8954 1.29529 17.9214Q1.38109 17.9474 1.46903 17.9649Q1.55697 17.9824 1.6462 17.9912Q1.73543 18 1.82509 18L19.1749 18Q19.2646 18 19.3538 17.9912Q19.443 17.9824 19.531 17.9649Q19.6189 17.9474 19.7047 17.9214Q19.7905 17.8954 19.8733 17.8611Q19.9562 17.8268 20.0353 17.7845Q20.1143 17.7422 20.1889 17.6924Q20.2634 17.6426 20.3327 17.5857Q20.402 17.5288 20.4654 17.4654Q20.5288 17.402 20.5857 17.3327Q20.6426 17.2634 20.6924 17.1889Q20.7422 17.1143 20.7845 17.0353Q20.8268 16.9562 20.8611 16.8733Q20.8954 16.7905 20.9214 16.7047Q20.9474 16.6189 20.9649 16.531Q20.9824 16.443 20.9912 16.3538Q21 16.2646 21 16.1749L21 1.82509Q21 1.73543 20.9912 1.6462Q20.9824 1.55697 20.9649 1.46903Q20.9474 1.38109 20.9214 1.29529Q20.8954 1.20949 20.8611 1.12666Q20.8268 1.04382 20.7845 0.964747Q20.7422 0.885673 20.6924 0.811123Q20.6426 0.736573 20.5857 0.667264Q20.5288 0.597955 20.4654 0.534556Q20.402 0.471156 20.3327 0.414276Q20.2634 0.357395 20.1889 0.307583Q20.1143 0.25777 20.0353 0.215504Q19.9562 0.173238 19.8733 0.138926Q19.7905 0.104615 19.7047 0.0785876Q19.6189 0.0525605 19.531 0.0350685Q19.443 0.0175766 19.3538 0.00878829Q19.2646 0 19.1749 0L1.82509 0Q1.73543 0 1.6462 0.00878829Q1.55697 0.0175766 1.46903 0.0350685Q1.38109 0.0525605 1.29529 0.0785876Q1.20949 0.104615 1.12666 0.138926Q1.04382 0.173238 0.964747 0.215504Q0.885673 0.25777 0.811123 0.307583Q0.736573 0.357395 0.667264 0.414276Q0.597955 0.471156 0.534556 0.534556Q0.471156 0.597955 0.414276 0.667264Q0.357395 0.736573 0.307583 0.811123Q0.25777 0.885673 0.215504 0.964747Q0.173238 1.04382 0.138926 1.12666Q0.104615 1.20949 0.0785876 1.29529Q0.0525605 1.38109 0.0350685 1.46903Q0.0175766 1.55697 0.00878829 1.6462Q0 1.73543 0 1.82509ZM2.46094 15.6106L2.46094 2.38938L18.5391 2.38938L18.5391 15.6106L2.46094 15.6106Z" id="Shape" fill="#FFFFFF" stroke="none" />
  </g>
</svg>