<?xml version="1.0" encoding="utf-8"?>
<svg width="23px" height="19px" viewBox="0 0 23 19" version="1.1" xmlns:xlink="http://www.w3.org/1999/xlink" xmlns="http://www.w3.org/2000/svg">
  <g id="sms">
    <path d="M14.7215 0L14.0968 0L14.0968 7.0338C14.0968 8.12896 13.4743 9.11924 12.2264 9.11924L0 9.11924L0 9.45364C0 10.4219 1.07506 11.3992 2.17906 11.3992L11.5267 11.3992L15.1028 13.5531L14.5842 11.3992L14.7215 11.3992C15.8247 11.3992 16.3226 10.4242 16.3226 9.45364L16.3226 1.66972C16.3226 0.70148 15.8247 0 14.7215 0Z" transform="translate(6.486742 5.0692)" id="Path" fill="#FFFFFF" stroke="none" />
    <path d="M16.8879 0L2.68729 0C1.43787 0 0 1.13696 0 2.23288L0 11.0489C0 12.0582 1.21826 12.787 2.38681 12.8995L1.62632 15.8566L6.49935 12.92L16.8879 12.92C18.1374 12.92 19.2903 12.144 19.2903 11.0489L19.2903 3.91628L19.2903 2.23288C19.2903 1.13696 18.1366 0 16.8879 0ZM4.85374 7.44192C4.14519 7.44192 3.57094 6.85368 3.57094 6.12788C3.57094 5.40208 4.14519 4.81384 4.85374 4.81384C5.56155 4.81384 6.13655 5.40208 6.13655 6.12788C6.13655 6.85368 5.56155 7.44192 4.85374 7.44192ZM9.64516 7.44192C8.93661 7.44192 8.36236 6.85368 8.36236 6.12788C8.36236 5.40208 8.93661 4.81384 9.64516 4.81384C10.3537 4.81384 10.928 5.40208 10.928 6.12788C10.928 6.85368 10.3537 7.44192 9.64516 7.44192ZM14.4373 7.44192C13.7288 7.44192 13.1538 6.85368 13.1538 6.12788C13.1538 5.40208 13.7288 4.81384 14.4373 4.81384C15.1444 4.81384 15.7201 5.40208 15.7201 6.12788C15.7201 6.85368 15.1444 7.44192 14.4373 7.44192Z" transform="translate(0 0.1824)" id="Shape" fill="#FFFFFF" stroke="none" />
  </g>
</svg>