<?xml version="1.0" encoding="utf-8"?>
<svg width="16px" height="21px" viewBox="0 0 16 21" version="1.1" xmlns:xlink="http://www.w3.org/1999/xlink" xmlns="http://www.w3.org/2000/svg">
  <g id="round-webcam">
    <path d="M11.0769 2.77885L9.50088 2.77885C9.13633 2.3712 8.2448 1.25885 7.74088 0.000369141C7.03372 0.174398 6.29867 0.276896 5.53846 0.276896C4.77772 0.276896 4.04222 0.174316 3.33452 0C2.83003 1.25639 1.93924 2.37021 1.57522 2.77885L0 2.77885L0 4.00932L11.0769 4.00932L11.0769 2.77885Z" transform="translate(2.4615386 16.99068)" id="Path" fill="#FFFFFF" stroke="none" />
    <path d="M8 14.7678C12.4111 14.7678 16 11.1798 16 6.76975C16 3.94578 14.5246 1.42353 12.3077 0L12.3077 6.76975C12.3077 9.14419 10.375 11.0764 8 11.0764C5.62498 11.0764 3.69231 9.14419 3.69231 6.76975L3.69231 0C1.47545 1.42353 0 3.94578 0 6.76975C0 11.1798 3.58892 14.7678 8 14.7678Z" transform="translate(0 1.2693106)" id="Path" fill="#FFFFFF" stroke="none" />
    <path d="M3.07692 11.1152C4.77346 11.1152 6.15385 9.73518 6.15385 8.03906L6.15385 0.617039C5.20599 0.220582 4.16693 0 3.07692 0C1.98691 0 0.947856 0.220582 0 0.617039L0 8.03906C0 9.73518 1.38039 11.1152 3.07692 11.1152ZM3.07692 6.19336C4.09493 6.19336 4.92308 7.0213 4.92308 8.03906C4.92308 9.05682 4.09493 9.88477 3.07692 9.88477C2.05891 9.88477 1.23077 9.05682 1.23077 8.03906C1.23077 7.0213 2.05891 6.19336 3.07692 6.19336Z" transform="translate(4.923077 0)" id="Shape" fill="#FFFFFF" stroke="none" />
  </g>
</svg>