<?xml version="1.0" encoding="utf-8"?>
<svg width="22px" height="22px" viewBox="0 0 22 22" version="1.1" xmlns:xlink="http://www.w3.org/1999/xlink" xmlns="http://www.w3.org/2000/svg">
  <g id="pie-chart-5">
    <path d="M9.87177 0L9.50814 0.0245143C4.44696 0.369757 0.369757 4.44696 0.0248548 9.50814L0 9.87177L9.87177 9.87177L9.87177 0Z" id="Path" fill="#4086F1" stroke="none" />
    <path d="M17.9571 3.55389C16.1583 1.46507 13.6579 0.211776 10.9163 0.0245143L10.5527 0L10.5527 10.5527L0 10.5527L0.0248548 10.9163C0.176026 13.1332 1.0262 15.1968 2.48377 16.8846C2.61452 17.0357 2.76092 17.1866 2.95874 17.3735L3.47796 17.8641C3.67612 18.0517 3.83478 18.1893 3.99276 18.3105C5.79082 19.6945 7.94161 20.4265 10.2122 20.4265C10.4799 20.4265 10.7516 20.416 11.0202 20.3952C15.9625 20.0142 19.9914 16.0031 20.3918 11.0645C20.6158 8.30524 19.751 5.63761 17.9571 3.55389Z" transform="translate(0.78571427 0.78571427)" id="Path" fill="#4086F1" stroke="none" />
  </g>
</svg>