<?xml version="1.0" encoding="utf-8"?>
<svg width="20px" height="20px" viewBox="0 0 20 20" version="1.1" xmlns:xlink="http://www.w3.org/1999/xlink" xmlns="http://www.w3.org/2000/svg">
  <path d="M0.793837 0L7.15453 0Q7.23272 0 7.3094 0.0152534Q7.38609 0.0305067 7.45832 0.0604272Q7.53055 0.0903478 7.59556 0.133786Q7.66057 0.177224 7.71586 0.232509Q7.77115 0.287795 7.81458 0.352805Q7.85802 0.417814 7.88794 0.490049Q7.91786 0.562283 7.93312 0.638967Q7.94837 0.715651 7.94837 0.793837L7.94837 7.15453Q7.94837 7.23272 7.93312 7.3094Q7.91786 7.38609 7.88794 7.45832Q7.85802 7.53055 7.81458 7.59556Q7.77115 7.66057 7.71586 7.71586Q7.66057 7.77115 7.59556 7.81458Q7.53055 7.85802 7.45832 7.88794Q7.38609 7.91786 7.3094 7.93312Q7.23272 7.94837 7.15453 7.94837L0.793837 7.94837Q0.715651 7.94837 0.638967 7.93312Q0.562283 7.91786 0.490049 7.88794Q0.417814 7.85802 0.352805 7.81458Q0.287795 7.77115 0.232509 7.71586Q0.177224 7.66057 0.133786 7.59556Q0.0903478 7.53055 0.0604272 7.45832Q0.0305067 7.38609 0.0152534 7.3094Q0 7.23272 0 7.15453L0 0.793837Q0 0.715651 0.0152534 0.638967Q0.0305067 0.562283 0.0604272 0.490049Q0.0903478 0.417814 0.133786 0.352805Q0.177224 0.287795 0.232509 0.232509Q0.287795 0.177224 0.352805 0.133786Q0.417814 0.0903478 0.490049 0.0604272Q0.562283 0.0305067 0.638967 0.0152534Q0.715651 0 0.793837 0Z" transform="translate(11.127716 11.127716)" id="Rectangle" fill="#EED328" fill-rule="evenodd" stroke="none" />
  <path d="M0.793837 0L7.15453 0Q7.23272 0 7.3094 0.0152534Q7.38609 0.0305067 7.45832 0.0604272Q7.53055 0.0903478 7.59556 0.133786Q7.66057 0.177224 7.71586 0.232509Q7.77115 0.287795 7.81458 0.352805Q7.85802 0.417814 7.88794 0.490049Q7.91786 0.562283 7.93312 0.638967Q7.94837 0.715651 7.94837 0.793837L7.94837 7.15453Q7.94837 7.23272 7.93312 7.3094Q7.91786 7.38609 7.88794 7.45832Q7.85802 7.53055 7.81458 7.59556Q7.77115 7.66057 7.71586 7.71586Q7.66057 7.77115 7.59556 7.81458Q7.53055 7.85802 7.45832 7.88794Q7.38609 7.91786 7.3094 7.93312Q7.23272 7.94837 7.15453 7.94837L0.793837 7.94837Q0.715651 7.94837 0.638967 7.93312Q0.562283 7.91786 0.490049 7.88794Q0.417814 7.85802 0.352805 7.81458Q0.287795 7.77115 0.232509 7.71586Q0.177224 7.66057 0.133786 7.59556Q0.0903478 7.53055 0.0604272 7.45832Q0.0305067 7.38609 0.0152534 7.3094Q0 7.23272 0 7.15453L0 0.793837Q0 0.715651 0.0152534 0.638967Q0.0305067 0.562283 0.0604272 0.490049Q0.0903478 0.417814 0.133786 0.352805Q0.177224 0.287795 0.232509 0.232509Q0.287795 0.177224 0.352805 0.133786Q0.417814 0.0903478 0.490049 0.0604272Q0.562283 0.0305067 0.638967 0.0152534Q0.715651 0 0.793837 0Z" transform="translate(11.127716 2.38451)" id="Rectangle" fill="#EED328" fill-rule="evenodd" stroke="none" />
  <path d="M0.793837 0L7.15453 0Q7.23272 0 7.3094 0.0152534Q7.38609 0.0305067 7.45832 0.0604272Q7.53055 0.0903478 7.59556 0.133786Q7.66057 0.177224 7.71586 0.232509Q7.77115 0.287795 7.81458 0.352805Q7.85802 0.417814 7.88794 0.490049Q7.91786 0.562283 7.93312 0.638967Q7.94837 0.715651 7.94837 0.793837L7.94837 7.15453Q7.94837 7.23272 7.93312 7.3094Q7.91786 7.38609 7.88794 7.45832Q7.85802 7.53055 7.81458 7.59556Q7.77115 7.66057 7.71586 7.71586Q7.66057 7.77115 7.59556 7.81458Q7.53055 7.85802 7.45832 7.88794Q7.38609 7.91786 7.3094 7.93312Q7.23272 7.94837 7.15453 7.94837L0.793837 7.94837Q0.715651 7.94837 0.638967 7.93312Q0.562283 7.91786 0.490049 7.88794Q0.417814 7.85802 0.352805 7.81458Q0.287795 7.77115 0.232509 7.71586Q0.177224 7.66057 0.133786 7.59556Q0.0903478 7.53055 0.0604272 7.45832Q0.0305067 7.38609 0.0152534 7.3094Q0 7.23272 0 7.15453L0 0.793837Q0 0.715651 0.0152534 0.638967Q0.0305067 0.562283 0.0604272 0.490049Q0.0903478 0.417814 0.133786 0.352805Q0.177224 0.287795 0.232509 0.232509Q0.287795 0.177224 0.352805 0.133786Q0.417814 0.0903478 0.490049 0.0604272Q0.562283 0.0305067 0.638967 0.0152534Q0.715651 0 0.793837 0Z" id="Rectangle" fill="#34C6A2" fill-rule="evenodd" stroke="none" />
  <path d="M0.793837 0L7.15453 0Q7.23272 0 7.3094 0.0152534Q7.38609 0.0305067 7.45832 0.0604272Q7.53055 0.0903478 7.59556 0.133786Q7.66057 0.177224 7.71586 0.232509Q7.77115 0.287795 7.81458 0.352805Q7.85802 0.417814 7.88794 0.490049Q7.91786 0.562283 7.93312 0.638967Q7.94837 0.715651 7.94837 0.793837L7.94837 7.15453Q7.94837 7.23272 7.93312 7.3094Q7.91786 7.38609 7.88794 7.45832Q7.85802 7.53055 7.81458 7.59556Q7.77115 7.66057 7.71586 7.71586Q7.66057 7.77115 7.59556 7.81458Q7.53055 7.85802 7.45832 7.88794Q7.38609 7.91786 7.3094 7.93312Q7.23272 7.94837 7.15453 7.94837L0.793837 7.94837Q0.715651 7.94837 0.638967 7.93312Q0.562283 7.91786 0.490049 7.88794Q0.417814 7.85802 0.352805 7.81458Q0.287795 7.77115 0.232509 7.71586Q0.177224 7.66057 0.133786 7.59556Q0.0903478 7.53055 0.0604272 7.45832Q0.0305067 7.38609 0.0152534 7.3094Q0 7.23272 0 7.15453L0 0.793837Q0 0.715651 0.0152534 0.638967Q0.0305067 0.562283 0.0604272 0.490049Q0.0903478 0.417814 0.133786 0.352805Q0.177224 0.287795 0.232509 0.232509Q0.287795 0.177224 0.352805 0.133786Q0.417814 0.0903478 0.490049 0.0604272Q0.562283 0.0305067 0.638967 0.0152534Q0.715651 0 0.793837 0Z" transform="translate(2.3845062 11.127716)" id="Rectangle" fill="#EED328" fill-rule="evenodd" stroke="none" />
</svg>