<?xml version="1.0" encoding="utf-8"?>
<svg width="154px" height="154px" viewBox="0 0 154 154" version="1.1" xmlns:xlink="http://www.w3.org/1999/xlink" xmlns="http://www.w3.org/2000/svg">
  <defs>
    <path d="M75 150C116.421 150 150 116.421 150 75C150 33.5786 116.421 0 75 0C33.5786 0 0 33.5786 0 75C0 116.421 33.5786 150 75 150Z" id="path_1" />
    <clipPath id="mask_1">
      <use xlink:href="#path_1" />
    </clipPath>
  </defs>
  <g id="chto-znachit-esli-muzhchina-nikogda-ne-pishet-pervym-no-vsegda-otvechaet-na-vashi-soobshhenija1" transform="translate(1.5625 1.5625)">
    <path d="M75 150C116.421 150 150 116.421 150 75C150 33.5786 116.421 0 75 0C33.5786 0 0 33.5786 0 75C0 116.421 33.5786 150 75 150Z" id="Mask" fill="#D8D8D8" fill-rule="evenodd" stroke="none" />
    <g clip-path="url(#mask_1)">
      <g id="man-user" transform="translate(31.385956 31.25)">
        <path d="M23.8279 58.0766C36.9868 58.0766 47.6552 45.0758 47.6552 29.0384C47.6552 13.0007 44.1526 0 23.8279 0C3.50327 0 0 13.0007 0 29.0384C0 45.0758 10.6684 58.0766 23.8279 58.0766Z" transform="translate(21.348602 0)" id="Path" fill="#4086F1" stroke="none" />
        <path d="M0.171419 0.502515C0.167361 -0.475307 0.163304 0.227015 0.171419 0.502515L0.171419 0.502515Z" transform="translate(0 101.911896)" id="Path" fill="#000000" stroke="none" />
        <path d="M0.165667 0.888217C0.178517 0.620521 0.170063 -0.969033 0.165667 0.888217L0.165667 0.888217Z" transform="translate(90.01398 102.28992)" id="Path" fill="#000000" stroke="none" />
        <path d="M89.9578 40.9372C89.5165 12.9997 85.88 5.03907 58.0524 0C58.0524 0 54.1353 5.0082 45.0051 5.0082C35.875 5.0082 31.9571 0 31.9571 0C4.43319 4.98411 0.575536 12.8267 0.0683069 40.0296C0.0267141 42.2509 0.00743937 42.3676 0 42.1098C0.00169076 42.5929 0.00371968 43.4866 0.00371968 45.0449C0.00371968 45.0449 6.62881 58.4454 45.0051 58.4454C83.3808 58.4454 90.0065 45.0449 90.0065 45.0449C90.0065 44.0437 90.0072 43.3475 90.0082 42.8738C90.0008 43.0333 89.9859 42.7242 89.9578 40.9372Z" transform="translate(0.17108154 60.30464)" id="Path" fill="#4086F1" stroke="none" />
      </g>
    </g>
  </g>
</svg>