<?xml version="1.0" encoding="utf-8"?>
<svg width="19px" height="19px" viewBox="0 0 19 19" version="1.1" xmlns:xlink="http://www.w3.org/1999/xlink" xmlns="http://www.w3.org/2000/svg">
  <g id="magnifying-glass-2">
    <path d="M18.5204 17.4184L14.0128 12.9107C15.1301 11.5485 15.8036 9.80357 15.8036 7.90179C15.8036 3.53954 12.264 0 7.90179 0C3.53571 0 0 3.53954 0 7.90179C0 12.264 3.53571 15.8036 7.90179 15.8036C9.80357 15.8036 11.5446 15.1339 12.9069 14.0166L17.4145 18.5204C17.7207 18.8265 18.2143 18.8265 18.5204 18.5204C18.8265 18.2181 18.8265 17.7207 18.5204 17.4184ZM7.90179 14.2309C4.40816 14.2309 1.56888 11.3916 1.56888 7.90179C1.56888 4.41199 4.40816 1.56888 7.90179 1.56888C11.3916 1.56888 14.2347 4.41199 14.2347 7.90179C14.2347 11.3916 11.3916 14.2309 7.90179 14.2309Z" id="Shape" fill="#A5A5A5" stroke="none" />
  </g>
</svg>